<mxfile host="Electron" agent="Mozilla/5.0 (Windows NT 10.0; Win64; x64) AppleWebKit/537.36 (KHTML, like Gecko) draw.io/28.1.2 Chrome/138.0.7204.243 Electron/37.4.0 Safari/537.36" version="28.1.2">
  <diagram id="WUxzfDFSMqVaj2RLjJZc" name="第 1 页">
    <mxGraphModel dx="1410" dy="859" grid="1" gridSize="10" guides="1" tooltips="1" connect="1" arrows="1" fold="1" page="1" pageScale="1" pageWidth="827" pageHeight="1169" math="0" shadow="0">
      <root>
        <mxCell id="0" />
        <mxCell id="1" parent="0" />
        <mxCell id="eG2SsFT0eaXD1nWHG00B-18" value="" style="edgeStyle=orthogonalEdgeStyle;rounded=0;orthogonalLoop=1;jettySize=auto;html=1;fontFamily=Times New Roman;fontSize=15;" edge="1" parent="1" source="Ludl4_b_G2u9jFd84prc-1" target="eG2SsFT0eaXD1nWHG00B-17">
          <mxGeometry relative="1" as="geometry" />
        </mxCell>
        <mxCell id="Ludl4_b_G2u9jFd84prc-1" value="&lt;div style=&quot;background-color: rgb(255, 255, 255); line-height: 22px; white-space: pre;&quot;&gt;FlowGetNew&lt;br&gt;获取Flow&lt;/div&gt;" style="rounded=0;whiteSpace=wrap;html=1;fillColor=none;fontFamily=Times New Roman;fontSize=15;" parent="1" vertex="1">
          <mxGeometry x="194.5" y="100" width="149" height="50" as="geometry" />
        </mxCell>
        <mxCell id="eG2SsFT0eaXD1nWHG00B-19" style="edgeStyle=orthogonalEdgeStyle;rounded=0;orthogonalLoop=1;jettySize=auto;html=1;exitX=0;exitY=0.5;exitDx=0;exitDy=0;exitPerimeter=0;entryX=0;entryY=0.5;entryDx=0;entryDy=0;fontFamily=Times New Roman;fontSize=15;dashed=1;dashPattern=8 8;" edge="1" parent="1" source="eG2SsFT0eaXD1nWHG00B-17" target="Ludl4_b_G2u9jFd84prc-1">
          <mxGeometry relative="1" as="geometry">
            <Array as="points">
              <mxPoint x="120" y="240" />
              <mxPoint x="120" y="125" />
            </Array>
          </mxGeometry>
        </mxCell>
        <mxCell id="eG2SsFT0eaXD1nWHG00B-20" value="成功" style="edgeLabel;html=1;align=center;verticalAlign=middle;resizable=0;points=[];fontFamily=Times New Roman;fontSize=15;" vertex="1" connectable="0" parent="eG2SsFT0eaXD1nWHG00B-19">
          <mxGeometry x="-0.192" y="-1" relative="1" as="geometry">
            <mxPoint as="offset" />
          </mxGeometry>
        </mxCell>
        <mxCell id="eG2SsFT0eaXD1nWHG00B-22" value="" style="edgeStyle=orthogonalEdgeStyle;rounded=0;orthogonalLoop=1;jettySize=auto;html=1;" edge="1" parent="1" source="eG2SsFT0eaXD1nWHG00B-17" target="eG2SsFT0eaXD1nWHG00B-21">
          <mxGeometry relative="1" as="geometry" />
        </mxCell>
        <mxCell id="eG2SsFT0eaXD1nWHG00B-24" value="失败" style="edgeLabel;html=1;align=center;verticalAlign=middle;resizable=0;points=[];fontSize=15;" vertex="1" connectable="0" parent="eG2SsFT0eaXD1nWHG00B-22">
          <mxGeometry x="-0.12" y="2" relative="1" as="geometry">
            <mxPoint as="offset" />
          </mxGeometry>
        </mxCell>
        <mxCell id="eG2SsFT0eaXD1nWHG00B-17" value="&lt;span style=&quot;white-space: pre; background-color: rgb(255, 255, 255);&quot;&gt;从线程的spare_queue&lt;/span&gt;&lt;br style=&quot;white-space: pre;&quot;&gt;&lt;span style=&quot;white-space: pre; background-color: rgb(255, 255, 255);&quot;&gt;空闲队列获取&lt;/span&gt;" style="strokeWidth=2;html=1;shape=mxgraph.flowchart.decision;whiteSpace=wrap;fontFamily=Times New Roman;fontSize=15;" vertex="1" parent="1">
          <mxGeometry x="154.5" y="200" width="229" height="80" as="geometry" />
        </mxCell>
        <mxCell id="eG2SsFT0eaXD1nWHG00B-25" value="" style="edgeStyle=orthogonalEdgeStyle;rounded=0;orthogonalLoop=1;jettySize=auto;html=1;" edge="1" parent="1" source="eG2SsFT0eaXD1nWHG00B-21" target="eG2SsFT0eaXD1nWHG00B-23">
          <mxGeometry relative="1" as="geometry" />
        </mxCell>
        <mxCell id="eG2SsFT0eaXD1nWHG00B-26" value="成功" style="edgeLabel;html=1;align=center;verticalAlign=middle;resizable=0;points=[];fontSize=15;" vertex="1" connectable="0" parent="eG2SsFT0eaXD1nWHG00B-25">
          <mxGeometry x="-0.3617" y="-1" relative="1" as="geometry">
            <mxPoint as="offset" />
          </mxGeometry>
        </mxCell>
        <mxCell id="eG2SsFT0eaXD1nWHG00B-31" style="edgeStyle=orthogonalEdgeStyle;rounded=0;orthogonalLoop=1;jettySize=auto;html=1;exitX=1;exitY=0.5;exitDx=0;exitDy=0;exitPerimeter=0;entryX=0;entryY=0.5;entryDx=0;entryDy=0;" edge="1" parent="1" source="eG2SsFT0eaXD1nWHG00B-21" target="eG2SsFT0eaXD1nWHG00B-29">
          <mxGeometry relative="1" as="geometry" />
        </mxCell>
        <mxCell id="eG2SsFT0eaXD1nWHG00B-21" value="&lt;span style=&quot;white-space: pre; background-color: rgb(255, 255, 255);&quot;&gt;从全局内存池申请&lt;br/&gt;FlowQueue&lt;/span&gt;" style="strokeWidth=2;html=1;shape=mxgraph.flowchart.decision;whiteSpace=wrap;fontFamily=Times New Roman;fontSize=15;" vertex="1" parent="1">
          <mxGeometry x="154.5" y="350" width="229" height="80" as="geometry" />
        </mxCell>
        <mxCell id="eG2SsFT0eaXD1nWHG00B-27" style="edgeStyle=orthogonalEdgeStyle;rounded=0;orthogonalLoop=1;jettySize=auto;html=1;exitX=0;exitY=0.5;exitDx=0;exitDy=0;exitPerimeter=0;entryX=0;entryY=0.5;entryDx=0;entryDy=0;dashed=1;dashPattern=8 8;" edge="1" parent="1" source="eG2SsFT0eaXD1nWHG00B-23" target="Ludl4_b_G2u9jFd84prc-1">
          <mxGeometry relative="1" as="geometry">
            <Array as="points">
              <mxPoint x="80" y="524" />
              <mxPoint x="80" y="125" />
            </Array>
          </mxGeometry>
        </mxCell>
        <mxCell id="eG2SsFT0eaXD1nWHG00B-28" value="成功" style="edgeLabel;html=1;align=center;verticalAlign=middle;resizable=0;points=[];fontSize=15;" vertex="1" connectable="0" parent="eG2SsFT0eaXD1nWHG00B-27">
          <mxGeometry x="-0.2466" relative="1" as="geometry">
            <mxPoint as="offset" />
          </mxGeometry>
        </mxCell>
        <mxCell id="eG2SsFT0eaXD1nWHG00B-30" value="" style="edgeStyle=orthogonalEdgeStyle;rounded=0;orthogonalLoop=1;jettySize=auto;html=1;" edge="1" parent="1" source="eG2SsFT0eaXD1nWHG00B-23" target="eG2SsFT0eaXD1nWHG00B-29">
          <mxGeometry relative="1" as="geometry" />
        </mxCell>
        <mxCell id="eG2SsFT0eaXD1nWHG00B-23" value="&lt;span style=&quot;white-space: pre; background-color: rgb(255, 255, 255);&quot;&gt;从FlowQueue中申请&lt;br/&gt;Flow对象&lt;/span&gt;" style="strokeWidth=2;html=1;shape=mxgraph.flowchart.decision;whiteSpace=wrap;fontFamily=Times New Roman;fontSize=15;" vertex="1" parent="1">
          <mxGeometry x="154.5" y="484" width="229" height="80" as="geometry" />
        </mxCell>
        <mxCell id="eG2SsFT0eaXD1nWHG00B-32" style="edgeStyle=orthogonalEdgeStyle;rounded=0;orthogonalLoop=1;jettySize=auto;html=1;exitX=0.5;exitY=0;exitDx=0;exitDy=0;entryX=1;entryY=0.5;entryDx=0;entryDy=0;dashed=1;dashPattern=8 8;" edge="1" parent="1" source="eG2SsFT0eaXD1nWHG00B-29" target="Ludl4_b_G2u9jFd84prc-1">
          <mxGeometry relative="1" as="geometry" />
        </mxCell>
        <mxCell id="eG2SsFT0eaXD1nWHG00B-33" value="成功" style="edgeLabel;html=1;align=center;verticalAlign=middle;resizable=0;points=[];fontSize=15;" vertex="1" connectable="0" parent="eG2SsFT0eaXD1nWHG00B-32">
          <mxGeometry x="-0.3254" relative="1" as="geometry">
            <mxPoint as="offset" />
          </mxGeometry>
        </mxCell>
        <mxCell id="eG2SsFT0eaXD1nWHG00B-29" value="FlowAlloc函数&lt;br&gt;直接申请Flow" style="whiteSpace=wrap;html=1;fontSize=15;fontFamily=Times New Roman;strokeWidth=2;" vertex="1" parent="1">
          <mxGeometry x="530" y="424" width="120" height="60" as="geometry" />
        </mxCell>
      </root>
    </mxGraphModel>
  </diagram>
</mxfile>
